<svg xmlns="http://www.w3.org/2000/svg" viewBox="0 0 80 80"><defs><linearGradient id="g" x1="0" y1="0" x2="1" y2="1"><stop offset="0" stop-color="#2DD4BF"/><stop offset="1" stop-color="#0F766E"/></linearGradient></defs><rect width="80" height="80" rx="18" fill="url(#g)"/><g fill="#fff"><circle cx="40" cy="40" r="9"/><rect x="36.5" y="22" width="7" height="10" rx="2.5"/><rect x="36.5" y="48" width="7" height="10" rx="2.5"/><rect x="36.5" y="22" width="7" height="10" rx="2.5" transform="rotate(60 40 40)"/><rect x="36.5" y="22" width="7" height="10" rx="2.5" transform="rotate(120 40 40)"/><rect x="36.5" y="22" width="7" height="10" rx="2.5" transform="rotate(180 40 40)"/><rect x="36.5" y="22" width="7" height="10" rx="2.5" transform="rotate(240 40 40)"/><rect x="36.5" y="22" width="7" height="10" rx="2.5" transform="rotate(300 40 40)"/><circle cx="40" cy="40" r="4.5" fill="#0F766E"/></g></svg>